# xmcd CD database file
#
# Track frame offsets:
#	150
#	21122
#	39207
#	51418
#	68452
#	85353
#	112461
#	143089
#	165060
#	181106
#	198986
#	212786
#
# Disc length: 3065 seconds
#
# Revision: 0
# Processed by: cddbd v1.4b42PL0 Copyright (c) Steve Scherf et al.
# Submitted via: Feurio! 1.61 - http://www.feurio.com
#
DISCID=9d0bf70c
DTITLE=Mason Casey - Soul on Fire
DYEAR=1900
DGENRE=
TTITLE0=Voodoo Boogie
TTITLE1=Ride with me
TTITLE2=Wha ma gonna do
TTITLE3=Out of Control
TTITLE4=Truck
TTITLE5=She jumped out of the Window
TTITLE6=Locked up for smokin Weed
TTITLE7=Digital Phone Blues
TTITLE8=Oh Annie
TTITLE9=Rainin` in my Heart
TTITLE10=Couldn`t leave my Baby alone
TTITLE11=Lucille
EXTD=
EXTT0=
EXTT1=
EXTT2=
EXTT3=
EXTT4=
EXTT5=
EXTT6=
EXTT7=
EXTT8=
EXTT9=
EXTT10=
EXTT11=
PLAYORDER=
